<?xml version="1.0" encoding="UTF-8"?>
<svg version="1.1" xmlns="http://www.w3.org/2000/svg" width="2034" height="354">
<path d="M0 0 C31.02 0 62.04 0 94 0 C94 116.82 94 233.64 94 354 C62.98 354 31.96 354 0 354 C0 237.18 0 120.36 0 0 Z " fill="#000000" transform="translate(1672,0)"/>
<path d="M0 0 C1.11784882 0.00141495 2.23569763 0.0028299 3.38742065 0.00428772 C6.92237133 0.00984003 10.45725629 0.02238346 13.9921875 0.03515625 C16.40364491 0.04017742 18.81510333 0.04473924 21.2265625 0.04882812 C27.10679361 0.0597938 32.98698379 0.07689539 38.8671875 0.09765625 C38.26015146 13.43017779 37.11444834 26.66300853 35.75 39.9375 C35.53438889 42.06492731 35.31912816 44.19239015 35.10418701 46.31988525 C34.52537574 52.03817305 33.94143703 57.75592596 33.3562851 63.47356796 C32.7429932 69.47276501 32.13378768 75.47237731 31.52392578 81.47192383 C30.5013219 91.52520474 29.47529012 101.57813142 28.44726562 111.63085938 C27.25801177 123.26069467 26.07460866 134.89111452 24.89418983 146.52184963 C23.75675667 157.72742699 22.61490543 168.93255004 21.47113037 180.13748169 C20.98479088 184.90285201 20.500074 189.66838329 20.0166626 194.43405151 C19.44894756 200.02907244 18.87740153 205.62368875 18.30283356 211.21800995 C18.09224319 213.27466771 17.88300722 215.33146464 17.67519379 217.38840485 C17.39239839 220.18534823 17.1048001 222.9817559 16.81591797 225.77807617 C16.69290912 227.01158766 16.69290912 227.01158766 16.56741524 228.27001858 C15.98134049 233.86935028 15.98134049 233.86935028 14.8671875 236.09765625 C9.87253398 236.19803578 4.87849285 236.26982082 -0.11694336 236.31738281 C-1.80910494 236.33725101 -3.50120021 236.36435532 -5.19311523 236.39941406 C-29.96023899 236.89901786 -49.48189821 229.09356373 -67.73046875 211.90136719 C-84.35340973 195.67167992 -94.9364011 174.64233551 -100.1328125 152.09765625 C-100.29362305 151.4442627 -100.45443359 150.79086914 -100.62011719 150.11767578 C-105.49254299 129.69869548 -105.14016238 105.44315099 -100.1328125 85.09765625 C-99.9771582 84.42234863 -99.82150391 83.74704102 -99.66113281 83.05126953 C-93.02020784 54.89030124 -76.38133874 27.42883111 -51.41430664 11.97119141 C-35.16555874 2.52312555 -18.5655822 -0.09006276 0 0 Z " fill="#000000" transform="translate(103.1328125,-0.09765625)"/>
<path d="M0 0 C7.32040564 -0.07011436 14.64073658 -0.12311818 21.96141243 -0.15543652 C25.36225536 -0.170963 28.76286531 -0.1919563 32.16357422 -0.22631836 C36.09088052 -0.26309629 40.01786417 -0.27981641 43.9453125 -0.29296875 C45.1417337 -0.30845261 46.33815491 -0.32393646 47.5708313 -0.33988953 C71.10584851 -0.34448625 91.05222402 9.12662808 107.52636719 25.51855469 C108.01266602 26.00743164 108.49896484 26.49630859 109 27 C109.83789062 27.83789062 110.67578125 28.67578125 111.5390625 29.5390625 C117.42247955 35.7459664 121.82521605 42.55724993 126 50 C126.6084375 51.08023438 127.216875 52.16046875 127.84375 53.2734375 C144.86985095 85.3093906 147.45928123 125.47339771 137 160 C127.87613079 189.29054494 110.25680023 213.89755739 82.984375 228.62890625 C72.20546352 233.78738532 61.03274698 236.1874913 49.09765625 236.09765625 C48.3750914 236.0962413 47.65252655 236.09482635 46.9080658 236.09336853 C44.62616635 236.08782225 42.34436921 236.0752802 40.0625 236.0625 C38.50455872 236.05747804 36.94661588 236.05291636 35.38867188 236.04882812 C31.59241258 236.03872632 27.79622071 236.01977574 24 236 C21.07849273 213.05454137 18.79582035 190.04271996 16.45530725 167.03241634 C15.99383795 162.4982971 15.5309372 157.96432444 15.06804246 153.43035054 C13.97721265 142.74576111 12.88860425 132.06094704 11.80151367 121.37597656 C10.68133707 110.36612807 9.55767602 99.35663912 8.43229705 88.34732127 C7.46224866 78.85655933 6.49415567 69.36559939 5.52768105 59.87447286 C4.95200001 54.22116459 4.37561814 48.56793013 3.79741859 42.91487885 C3.25586264 37.6191152 2.71675431 32.32310805 2.17955017 27.02690125 C1.98208371 25.08414643 1.78375595 23.14147895 1.5845089 21.19890594 C1.31302574 18.55070175 1.04464427 15.90220103 0.77705383 13.25360107 C0.69739028 12.48368293 0.61772672 11.71376478 0.53564912 10.92051578 C0.16969665 7.2655838 -0.08992733 3.67396525 0 0 Z " fill="#000000" transform="translate(149,118)"/>
<path d="M0 0 C38.94 0 77.88 0 118 0 C118 77.88 118 155.76 118 236 C86.98 236 55.96 236 24 236 C21.70247298 219.91731088 21.70247298 219.91731088 20.92428589 212.2013092 C20.83273889 211.31632246 20.74119189 210.43133572 20.64687073 209.51953119 C20.34641596 206.60841874 20.04989091 203.69692083 19.75341797 200.78540039 C19.53660599 198.67646977 19.31955837 196.56756336 19.10229492 194.4586792 C18.51714546 188.77147178 17.93552808 183.08390851 17.35477209 177.39625096 C16.86870814 172.63917084 16.38089855 167.88227037 15.893098 163.12536806 C14.74276371 151.90732374 13.59530392 140.688988 12.44970703 129.47045898 C11.26860278 117.90466998 10.08285451 106.33936378 8.89480484 94.77428633 C7.87308712 84.82689411 6.85411852 74.87922296 5.83738434 64.93132013 C5.23085792 58.99716063 4.62331849 53.06310942 4.01317978 47.12932014 C3.44035872 41.55718683 2.87097813 35.98471249 2.304245 30.41195679 C2.09584812 28.36842343 1.88624481 26.32501269 1.67534256 24.28173637 C1.38752796 21.49141589 1.10409259 18.70068369 0.82174683 15.9098053 C0.7375102 15.10319098 0.65327358 14.29657666 0.56648433 13.46551949 C0.49108303 12.71128588 0.41568172 11.95705228 0.33799553 11.17996311 C0.23937558 10.21565525 0.23937558 10.21565525 0.13876331 9.23186642 C-0.05221585 6.16016122 0 3.07763641 0 0 Z " fill="#000000" transform="translate(970,118)"/>
<path d="M0 0 C1.05879364 -0.01231155 2.11758728 -0.02462311 3.20846558 -0.03730774 C4.23046901 -0.04923928 4.23046901 -0.04923928 5.27311897 -0.06141186 C6.76181816 -0.07865766 8.25052037 -0.09564399 9.73922539 -0.11237812 C12.79490564 -0.14698244 15.85036213 -0.18293385 18.90582275 -0.23373413 C44.26555065 -0.65255907 65.81984619 7.82337815 84.33789062 25.34228516 C99.66995212 40.63380948 109.10268158 60.78450972 114.75 81.4375 C114.94883789 82.15139893 115.14767578 82.86529785 115.35253906 83.60083008 C119.6833869 100.39493684 119.2742181 117.46312811 119.20278788 134.67115593 C119.19013096 138.24385678 119.18909841 141.81656242 119.18673706 145.38928223 C119.18056562 152.1284397 119.1642147 158.86753089 119.14403808 165.60665941 C119.11732142 174.7318181 119.10667133 183.85699542 119.09503365 192.98218346 C119.07633001 207.32150512 119.03645588 221.66068701 119 236 C87.65 236 56.3 236 24 236 C19.72787837 194.57295894 19.72787837 194.57295894 17.89453125 176.77148438 C16.64486034 164.63752953 15.39493701 152.50360118 14.14306641 140.36987305 C9.31700351 93.59060151 4.53131072 46.80887692 0 0 Z " fill="#000000" transform="translate(1111,118)"/>
<path d="M0 0 C31.35 0 62.7 0 95 0 C95 77.88 95 155.76 95 236 C63.65 236 32.3 236 0 236 C0 158.12 0 80.24 0 0 Z " fill="#000000" transform="translate(852,118)"/>
<path d="M0 0 C13.83378594 1.37045503 27.66705394 2.74609363 41.5 4.125 C42.57130661 4.23178825 43.64261322 4.33857651 44.74638367 4.44860077 C87.92320768 8.75417327 131.08790463 13.17464149 174.25 17.625 C175.0200021 17.7043897 175.7900042 17.78377939 176.58333969 17.86557484 C196.38917304 19.9076744 216.19473433 21.95240178 236 24 C236.01608712 26.08355209 236.02757287 28.16714005 236.03710938 30.25073242 C236.0439978 31.41102463 236.05088623 32.57131683 236.0579834 33.76676941 C235.70956803 53.19486855 223.08082379 71.44267472 210.3125 85.125 C184.06256654 110.05980653 148.37218314 119.893193 112.875 119.24609375 C90.64410627 118.51115795 69.32318654 113.08823947 50 102 C49.08395996 101.47599609 49.08395996 101.47599609 48.14941406 100.94140625 C26.35289973 88.23356127 9.2774525 69.07455824 2.2890625 44.5 C-0.13436776 34.38481282 -0.12876928 24.28060483 -0.0625 13.9375 C-0.05747314 12.58138187 -0.05291234 11.22526192 -0.04882812 9.86914062 C-0.03712079 6.57938006 -0.02072211 3.28971406 0 0 Z " fill="#000000" transform="translate(1798,235)"/>
<path d="M0 0 C0.66132935 0.00100708 1.32265869 0.00201416 2.00402832 0.00305176 C3.44222196 0.0061063 4.8804121 0.0116859 6.3185873 0.0195837 C10.18630147 0.03967503 14.05402871 0.05388337 17.92176819 0.06813049 C18.68832497 0.07098698 19.45488175 0.07384347 20.24466753 0.07678652 C22.12274697 0.08377974 24.00082659 0.09072304 25.87890625 0.09765625 C23.2635025 27.96170672 20.52146404 55.81076066 17.66960931 83.65156031 C17.14997728 88.72707202 16.6318934 93.80274184 16.11357117 98.87838745 C15.24817559 107.35050463 14.3816658 115.82250723 13.5144043 124.29443359 C12.51430471 134.06410967 11.51590102 143.83395796 10.51838523 153.60389817 C9.54960989 163.09208747 8.57980868 172.58017163 7.60948753 182.06820297 C7.19971537 186.0751422 6.7902729 190.08211491 6.38109779 194.08911514 C5.90172656 198.78297896 5.4214465 203.47674893 4.94046783 208.1704483 C4.76480313 209.88607769 4.58944169 211.60173816 4.41441154 213.3174324 C4.17496519 215.66402969 3.93439916 218.01050966 3.69355774 220.35696411 C3.55956227 221.66666735 3.42556681 222.97637058 3.28751087 224.3257618 C2.86168788 228.2566018 2.3798035 232.17576821 1.87890625 236.09765625 C-18.25731987 237.15745762 -38.02199257 228.7593966 -52.92773438 215.48925781 C-60.24558551 208.711625 -66.96804644 201.68606843 -72.12109375 193.09765625 C-72.46978516 192.52853516 -72.81847656 191.95941406 -73.17773438 191.37304688 C-93.26495194 158.35061936 -97.91320285 118.7996682 -88.85546875 81.40649414 C-81.51091491 52.96929976 -65.18179253 26.1964298 -39.47265625 10.96484375 C-26.82984593 3.92141329 -14.57016423 -0.10674421 0 0 Z " fill="#000000" transform="translate(677.12109375,117.90234375)"/>
<path d="M0 0 C0.66132935 0.00100708 1.32265869 0.00201416 2.00402832 0.00305176 C3.44222196 0.0061063 4.8804121 0.0116859 6.3185873 0.0195837 C10.18630147 0.03967503 14.05402871 0.05388337 17.92176819 0.06813049 C18.68832497 0.07098698 19.45488175 0.07384347 20.24466753 0.07678652 C22.12274697 0.08377974 24.00082659 0.09072304 25.87890625 0.09765625 C23.2635025 27.96170672 20.52146404 55.81076066 17.66960931 83.65156031 C17.14997728 88.72707202 16.6318934 93.80274184 16.11357117 98.87838745 C15.24817559 107.35050463 14.3816658 115.82250723 13.5144043 124.29443359 C12.51430471 134.06410967 11.51590102 143.83395796 10.51838523 153.60389817 C9.54960989 163.09208747 8.57980868 172.58017163 7.60948753 182.06820297 C7.19971537 186.0751422 6.7902729 190.08211491 6.38109779 194.08911514 C5.90172656 198.78297896 5.4214465 203.47674893 4.94046783 208.1704483 C4.76480313 209.88607769 4.58944169 211.60173816 4.41441154 213.3174324 C4.17496519 215.66402969 3.93439916 218.01050966 3.69355774 220.35696411 C3.55956227 221.66666735 3.42556681 222.97637058 3.28751087 224.3257618 C2.86168788 228.2566018 2.3798035 232.17576821 1.87890625 236.09765625 C-18.25731987 237.15745762 -38.02199257 228.7593966 -52.92773438 215.48925781 C-60.24558551 208.711625 -66.96804644 201.68606843 -72.12109375 193.09765625 C-72.46978516 192.52853516 -72.81847656 191.95941406 -73.17773438 191.37304688 C-93.26495194 158.35061936 -97.91320285 118.7996682 -88.85546875 81.40649414 C-81.51091491 52.96929976 -65.18179253 26.1964298 -39.47265625 10.96484375 C-26.82984593 3.92141329 -14.57016423 -0.10674421 0 0 Z " fill="#000000" transform="translate(1623.12109375,117.90234375)"/>
<path d="M0 0 C0.76837189 0.00141495 1.53674377 0.0028299 2.32839966 0.00428772 C4.76324489 0.00984942 7.19799544 0.02239465 9.6328125 0.03515625 C11.29166533 0.04017621 12.95051962 0.04473824 14.609375 0.04882812 C18.6588902 0.05980627 22.70833534 0.07704419 26.7578125 0.09765625 C25.57515408 12.05647153 24.38680192 24.01471773 23.1953125 35.97265625 C23.10125751 36.91663017 23.00720253 37.8606041 22.91029739 38.83318329 C18.59349301 82.13871045 14.14867454 125.43100478 9.6953125 168.72265625 C9.60952486 169.55663783 9.52373721 170.39061941 9.43534994 171.24987316 C7.21175483 192.86603277 4.98594144 214.4819635 2.7578125 236.09765625 C1.33571823 236.11073029 -0.08641136 236.1199937 -1.50854492 236.12768555 C-2.30048752 236.13325974 -3.09243011 236.13883392 -3.90837097 236.14457703 C-23.4118719 235.7524642 -41.63832706 225.37340874 -55.2421875 212.09765625 C-56.1084375 211.27265625 -56.9746875 210.44765625 -57.8671875 209.59765625 C-58.6509375 208.77265625 -59.4346875 207.94765625 -60.2421875 207.09765625 C-60.82226562 206.51242187 -61.40234375 205.9271875 -62 205.32421875 C-85.13827298 180.91560921 -93.26187028 144.62871765 -92.52734375 112 C-91.39344296 82.8838947 -81.67028665 54.80482249 -63.2421875 32.09765625 C-62.54351562 31.23269531 -61.84484375 30.36773437 -61.125 29.4765625 C-45.91714952 11.62265745 -23.69378095 -0.16646875 0 0 Z " fill="#000000" transform="translate(408.2421875,117.90234375)"/>
<path d="M0 0 C0.76837189 0.00141495 1.53674377 0.0028299 2.32839966 0.00428772 C4.76324489 0.00984942 7.19799544 0.02239465 9.6328125 0.03515625 C11.29166533 0.04017621 12.95051962 0.04473824 14.609375 0.04882812 C18.6588902 0.05980627 22.70833534 0.07704419 26.7578125 0.09765625 C24.51538568 22.30435899 22.27212662 44.51097753 20.02795982 66.7175045 C18.98522734 77.0357532 17.94273934 87.35402649 16.90087891 97.67236328 C12.24115202 143.8198508 7.5693798 189.9657092 2.7578125 236.09765625 C1.33571823 236.11073029 -0.08641136 236.1199937 -1.50854492 236.12768555 C-2.30048752 236.13325974 -3.09243011 236.13883392 -3.90837097 236.14457703 C-24.52992457 235.72998604 -43.82545783 224.09276006 -58.2421875 210.09765625 C-83.19041107 183.59260126 -93.33585965 147.77898648 -92.52734375 112 C-91.39344296 82.8838947 -81.67028665 54.80482249 -63.2421875 32.09765625 C-62.54351563 31.23269531 -61.84484375 30.36773437 -61.125 29.4765625 C-45.91714952 11.62265745 -23.69378095 -0.16646875 0 0 Z " fill="#000000" transform="translate(1354.2421875,117.90234375)"/>
<path d="M0 0 C23.97843025 0 42.81277281 9.53175762 60.125 25.6875 C87.26003186 54.19645753 94.89935447 91.23350602 94.13183594 129.41992188 C93.85963818 136.81160316 92.80246072 143.83550203 91 151 C90.80132324 151.80050781 90.60264648 152.60101563 90.39794922 153.42578125 C87.33432056 165.37737531 83.08852322 176.27318472 77 187 C76.44570313 187.98226562 75.89140625 188.96453125 75.3203125 189.9765625 C62.24238711 211.68967308 42.819943 227.43431438 18.296875 234.203125 C11.83294192 235.76549745 6.87513302 236 0 236 C0 158.12 0 80.24 0 0 Z " fill="#000000" transform="translate(726,118)"/>
<path d="M0 0 C23.65618683 0 43.37769849 9.78029538 60.1640625 26.0859375 C85.0222251 51.1797225 94.26091024 86.3994283 94.2487793 120.77124023 C93.91422515 155.22069036 81.77533502 188.52419407 57 213 C41.24459042 227.4939032 21.44374717 236 0 236 C0 158.12 0 80.24 0 0 Z " fill="#000000" transform="translate(1404,118)"/>
<path d="M0 0 C0.91604004 0.52400391 0.91604004 0.52400391 1.85058594 1.05859375 C10.91465007 6.34314155 18.58671913 12.59752566 26 20 C26.73992187 20.72832031 27.47984375 21.45664063 28.2421875 22.20703125 C42.46823982 37.12501218 49 56.765096 49 77 C-28.88 77 -106.76 77 -187 77 C-183.85269043 48.67421391 -175.04064422 29.85639863 -154 11 C-149.83464156 7.72077514 -145.51478821 4.77230596 -141 2 C-140.43861328 1.65340332 -139.87722656 1.30680664 -139.29882812 0.94970703 C-98.13604456 -23.91850131 -41.48765319 -23.80689295 0 0 Z " fill="#000000" transform="translate(1985,135)"/>
<path d="M0 0 C4.49887398 3.85617769 8.80247762 7.65599165 12.96690369 11.83319092 C13.52416423 12.3881859 14.08142477 12.94318089 14.655572 13.51499391 C16.50182867 15.3549755 18.34454902 17.19845604 20.18725586 19.04199219 C21.51812232 20.36986338 22.84919262 21.69753031 24.18045044 23.02500916 C27.77946042 26.61521933 31.37525275 30.20863524 34.97018504 33.80292797 C37.21580098 36.04783193 39.46212792 38.29202189 41.70871162 40.53595734 C49.54376783 48.36177841 57.37625293 56.19016208 65.20629883 64.02099609 C72.5119318 71.32723164 79.82314351 78.62785174 87.13695043 85.92590404 C93.41660565 92.19251226 99.69242862 98.46294068 105.9652434 104.73639607 C109.71201383 108.48342203 113.46033666 112.22886283 117.21250725 115.97048187 C120.73403837 119.48237807 124.2507984 122.99898095 127.7638588 126.51935005 C129.05699642 127.81353879 130.35186111 129.10600439 131.64852715 130.39665794 C133.41097975 132.15146279 135.1672331 133.91224027 136.92198181 135.67474365 C137.44248499 136.19010327 137.96298818 136.70546289 138.49926418 137.23643947 C142 140.7717272 142 140.7717272 142 143 C95.14 143 48.28 143 0 143 C0 95.81 0 48.62 0 0 Z " fill="#000000" transform="translate(0,211)"/>
<path d="M0 0 C39.27 0 78.54 0 119 0 C119 39.27 119 78.54 119 119 C115.14131311 117.07065656 113.16190183 115.41318216 110.15313721 112.40710449 C109.68011099 111.93719825 109.20708477 111.46729201 108.71972442 110.98314619 C107.13811384 109.40950428 105.563738 107.82882056 103.98925781 106.24804688 C102.85609159 105.11759094 101.72250038 103.98756087 100.58851624 102.85792542 C97.51183984 99.79036869 94.44152569 96.71651686 91.37257862 93.64122963 C88.16314022 90.42673156 84.94882948 87.21711162 81.73529053 84.00671387 C76.34156936 78.61663138 70.95207958 73.22234491 65.56494141 67.82568359 C59.32931019 61.579157 53.08649158 55.33988306 46.8399117 49.1043067 C41.48163031 43.7550878 36.12723948 38.40199806 30.7761085 33.04562616 C27.57789775 29.8442914 24.37833687 26.64433749 21.17527008 23.44786072 C18.16665143 20.4450002 15.16293082 17.43732625 12.16299248 14.4257946 C11.05852355 13.31867133 9.95233095 12.21326467 8.84433937 11.10966682 C7.33788041 9.60863403 5.8376565 8.10164123 4.33892822 6.59289551 C3.07464682 5.32748302 3.07464682 5.32748302 1.78482437 4.03650665 C0 2 0 2 0 0 Z " fill="#000000" transform="translate(165,0)"/>
<path d="M0 0 C0 31.35 0 62.7 0 95 C-31.02 95 -62.04 95 -94 95 C-92.23417065 91.4683413 -91.01466761 89.76522471 -88.31150818 87.06427002 C-87.54451599 86.29308334 -86.7775238 85.52189667 -85.98728943 84.7273407 C-85.14513382 83.8908046 -84.30297821 83.05426849 -83.43530273 82.19238281 C-82.54904205 81.30422379 -81.66278137 80.41606476 -80.74966431 79.50099182 C-78.32163647 77.06989517 -75.88922643 74.64335099 -73.45459628 72.21887684 C-70.90932081 69.68238797 -68.36932187 67.1406254 -65.82862854 64.59954834 C-61.56404087 60.33589667 -57.29560025 56.07613357 -53.0246582 51.81884766 C-48.08048246 46.89042191 -43.14157759 41.95676425 -38.2056374 37.0200913 C-33.46137971 32.27522435 -28.7142765 27.53321567 -23.96556282 22.79280853 C-21.94206386 20.77284818 -19.91942373 18.7520335 -17.89742851 16.73056793 C-15.07971911 13.91404498 -12.25777275 11.10179173 -9.43530273 8.29003906 C-8.59112289 7.44540604 -7.74694305 6.60077301 -6.87718201 5.73054504 C-5.73092346 4.59068398 -5.73092346 4.59068398 -4.56150818 3.42779541 C-3.89396232 2.76192539 -3.22641645 2.09605537 -2.53864193 1.41000748 C-1 0 -1 0 0 0 Z " fill="#000000" transform="translate(552,259)"/>
<path d="M0 0 C31.02 0 62.04 0 94 0 C94 31.02 94 62.04 94 94 C90.48609134 92.24304567 88.78960351 91.04050049 86.10223389 88.35620117 C85.33946136 87.5990683 84.57668884 86.84193542 83.790802 86.06185913 C82.55002396 84.81500839 82.55002396 84.81500839 81.28417969 83.54296875 C80.40577423 82.66806793 79.52736877 81.79316711 78.62234497 80.89175415 C76.21802943 78.49473022 73.81829839 76.09329427 71.42080593 73.68945694 C68.91205017 71.17563656 66.39841724 68.6667007 63.88555908 66.15698242 C59.66879857 61.94385886 55.45626942 57.72653901 51.24609375 53.50683594 C46.37375016 48.62359421 41.49422419 43.74761835 36.61093211 38.87532711 C32.42036786 34.69382663 28.23369846 30.5084565 24.05028462 26.31980228 C21.55071373 23.81710849 19.04979959 21.31579725 16.54537201 18.81796265 C13.75726442 16.0366832 10.97734434 13.24731058 8.19824219 10.45703125 C7.3629599 9.62579742 6.52767761 8.7945636 5.66708374 7.93814087 C4.91559052 7.181008 4.16409729 6.42387512 3.38983154 5.64379883 C2.40208803 4.65492424 2.40208803 4.65492424 1.39439011 3.64607239 C0 2 0 2 0 0 Z " fill="#000000" transform="translate(458,118)"/>
</svg>
